<?xml version="1.0" standalone="no"?>
<!DOCTYPE svg PUBLIC "-//W3C//DTD SVG 20010904//EN"
 "http://www.w3.org/TR/2001/REC-SVG-20010904/DTD/svg10.dtd">
<svg version="1.0" xmlns="http://www.w3.org/2000/svg"
 width="32.000000pt" height="32.000000pt" viewBox="0 0 32.000000 32.000000"
 preserveAspectRatio="xMidYMid meet">

<g transform="translate(0.000000,32.000000) scale(0.100000,-0.100000)"
fill="#000000" stroke="none">
<path fill="red" d="M43 265 c-42 -18 -53 -53 -24 -76 l22 -18 -21 -42 c-18 -34 -20 -47
-11 -65 10 -24 13 -24 151 -24 138 0 141 0 151 24 9 18 7 31 -11 65 l-21 42
22 18 c29 24 17 58 -27 77 -43 18 -188 18 -231 -1z m85 -90 c0 -14 -4 -25 -9
-25 -5 0 -6 -7 -3 -15 7 -17 -23 -32 -36 -19 -12 12 20 83 36 84 6 0 12 -11
12 -25z m47 -6 c0 -13 5 -27 10 -31 9 -7 -10 -28 -25 -28 -15 0 -34 21 -25 28
6 4 10 16 9 27 -1 27 5 37 19 32 7 -2 12 -14 12 -28z m57 -7 c19 -39 11 -59
-17 -48 -10 3 -15 12 -11 21 3 8 2 15 -3 15 -5 0 -8 11 -8 25 0 36 19 30 39
-13z"/>
</g>
</svg>
